<svg xmlns="http://www.w3.org/2000/svg" viewBox="0 0 1200 750" role="img" aria-label="Clinical musculoskeletal treatment planning illustration with knee and shoulder anatomy">
  <defs>
    <linearGradient id="bg" x1="0" y1="0" x2="1" y2="1">
      <stop offset="0" stop-color="#EAF3FF"/>
      <stop offset="0.55" stop-color="#FFFFFF"/>
      <stop offset="1" stop-color="#F4F8FC"/>
    </linearGradient>
    <linearGradient id="blue" x1="0" y1="0" x2="1" y2="1">
      <stop offset="0" stop-color="#0553CB"/>
      <stop offset="1" stop-color="#073B8E"/>
    </linearGradient>
    <filter id="shadow" x="-20%" y="-20%" width="140%" height="140%">
      <feDropShadow dx="0" dy="26" stdDeviation="28" flood-color="#0C2A42" flood-opacity="0.14"/>
    </filter>
  </defs>
  <rect width="1200" height="750" fill="url(#bg)"/>
  <circle cx="1010" cy="118" r="260" fill="#0553CB" opacity="0.055"/>
  <circle cx="155" cy="640" r="285" fill="#073B8E" opacity="0.045"/>
  <g opacity="0.16" stroke="#0C2A42" stroke-width="2">
    <path d="M105 135 H1095"/><path d="M105 225 H1095"/><path d="M105 315 H1095"/><path d="M105 405 H1095"/><path d="M105 495 H1095"/><path d="M105 585 H1095"/>
    <path d="M210 72 V680"/><path d="M390 72 V680"/><path d="M570 72 V680"/><path d="M750 72 V680"/><path d="M930 72 V680"/>
  </g>
  <g filter="url(#shadow)">
    <rect x="130" y="100" width="940" height="560" rx="34" fill="#FFFFFF" opacity="0.94"/>
    <rect x="130" y="100" width="940" height="560" rx="34" fill="none" stroke="#D8E7F7" stroke-width="2"/>
  </g>
  <g transform="translate(205 170)">
    <rect x="0" y="0" width="360" height="390" rx="28" fill="#F8FBFE" stroke="#D8E7F7" stroke-width="2"/>
    <path d="M190 56 C152 120 142 191 157 251 C172 311 143 349 83 358" fill="none" stroke="#0C2A42" stroke-width="26" stroke-linecap="round"/>
    <path d="M176 85 C151 145 149 202 160 252 C170 300 142 332 95 344" fill="none" stroke="url(#blue)" stroke-width="10" stroke-linecap="round"/>
    <path d="M113 352 C170 386 248 383 307 356" fill="none" stroke="#0C2A42" stroke-width="18" stroke-linecap="round"/>
    <circle cx="172" cy="265" r="42" fill="#0553CB" opacity="0.12"/>
    <path d="M113 323 C167 340 238 338 296 322" fill="none" stroke="#0553CB" stroke-width="8" opacity="0.5" stroke-linecap="round"/>
  </g>
  <g transform="translate(635 170)">
    <rect x="0" y="0" width="360" height="390" rx="28" fill="#F8FBFE" stroke="#D8E7F7" stroke-width="2"/>
    <path d="M167 95 C111 117 80 166 77 229 C75 288 111 330 169 342 C231 355 287 322 306 263 C322 216 311 160 274 126 C246 101 207 86 167 95Z" fill="#FFFFFF" stroke="#0C2A42" stroke-width="18"/>
    <path d="M131 171 C167 122 226 122 263 167" fill="none" stroke="url(#blue)" stroke-width="15" stroke-linecap="round"/>
    <path d="M126 245 C164 286 229 288 270 247" fill="none" stroke="#0553CB" stroke-width="12" stroke-linecap="round" opacity="0.78"/>
    <circle cx="179" cy="211" r="58" fill="#0553CB" opacity="0.1"/>
    <path d="M116 92 C91 116 75 147 69 185" fill="none" stroke="#073B8E" stroke-width="10" stroke-linecap="round" opacity="0.42"/>
    <path d="M281 114 C310 143 324 179 321 218" fill="none" stroke="#073B8E" stroke-width="10" stroke-linecap="round" opacity="0.42"/>
  </g>
  <g transform="translate(280 610)">
    <rect x="0" y="0" width="640" height="8" rx="4" fill="#D8E7F7"/>
    <rect x="0" y="0" width="410" height="8" rx="4" fill="url(#blue)" opacity="0.8"/>
  </g>
</svg>
