<svg xmlns="http://www.w3.org/2000/svg" viewBox="0 0 1200 750" role="img" aria-label="Abstract Achilles tendon and heel clinical illustration">
  <defs>
    <linearGradient id="bg" x1="0" y1="0" x2="1" y2="1"><stop offset="0" stop-color="#EAF3FF"/><stop offset="1" stop-color="#FFFFFF"/></linearGradient>
    <linearGradient id="blue" x1="0" y1="0" x2="1" y2="1"><stop offset="0" stop-color="#0553CB"/><stop offset="1" stop-color="#073B8E"/></linearGradient>
  </defs>
  <rect width="1200" height="750" fill="url(#bg)"/>
  <circle cx="960" cy="130" r="210" fill="#0553CB" opacity="0.055"/>
  <circle cx="175" cy="630" r="250" fill="#073B8E" opacity="0.045"/>
  <path d="M750 120 C700 215 676 305 680 398 C684 498 625 568 514 582 C437 592 350 584 266 576" fill="none" stroke="#0C2A42" stroke-width="34" stroke-linecap="round"/>
  <path d="M695 178 C661 262 652 345 664 420 C677 501 623 552 526 563" fill="none" stroke="url(#blue)" stroke-width="16" stroke-linecap="round" opacity="0.95"/>
  <path d="M705 430 C628 486 575 526 530 574" fill="none" stroke="#0553CB" stroke-width="20" stroke-linecap="round" opacity="0.75"/>
  <path d="M266 576 C410 650 585 642 710 596" fill="none" stroke="#0C2A42" stroke-width="22" stroke-linecap="round" opacity="0.9"/>
  <path d="M296 620 C420 676 575 672 682 632" fill="none" stroke="#0553CB" stroke-width="8" stroke-linecap="round" opacity="0.45"/>
  <g fill="none" stroke="#0553CB" stroke-width="6" opacity="0.28"><path d="M820 300 h180"/><path d="M785 350 h250"/><path d="M805 400 h205"/></g>
</svg>
