<svg xmlns="http://www.w3.org/2000/svg" viewBox="0 0 1200 750" role="img" aria-label="Abstract ultrasound guided injection clinical illustration">
  <defs><linearGradient id="bg" x1="0" y1="0" x2="1" y2="1"><stop offset="0" stop-color="#F4F8FC"/><stop offset="1" stop-color="#FFFFFF"/></linearGradient><linearGradient id="blue" x1="0" y1="0" x2="1" y2="1"><stop offset="0" stop-color="#0553CB"/><stop offset="1" stop-color="#073B8E"/></linearGradient></defs>
  <rect width="1200" height="750" fill="url(#bg)"/>
  <circle cx="960" cy="145" r="235" fill="#0553CB" opacity="0.055"/>
  <rect x="230" y="190" width="420" height="280" rx="32" fill="#FFFFFF" stroke="#0C2A42" stroke-width="18"/>
  <path d="M278 396 C350 300 460 295 560 380" fill="none" stroke="#0553CB" stroke-width="14" stroke-linecap="round" opacity="0.8"/>
  <path d="M300 405 C380 360 455 360 535 405" fill="none" stroke="#073B8E" stroke-width="8" stroke-linecap="round" opacity="0.45"/>
  <rect x="670" y="300" width="280" height="42" rx="21" transform="rotate(-28 810 321)" fill="url(#blue)"/>
  <rect x="917" y="178" width="90" height="70" rx="14" transform="rotate(-28 962 213)" fill="#0C2A42" opacity="0.92"/>
  <path d="M596 421 L738 350" stroke="#0C2A42" stroke-width="8" stroke-linecap="round"/>
  <circle cx="596" cy="421" r="18" fill="#0553CB" opacity="0.34"/>
  <g fill="none" stroke="#0553CB" stroke-width="5" opacity="0.23"><path d="M210 535 h250"/><path d="M250 580 h360"/><path d="M330 625 h230"/></g>
</svg>
