<svg xmlns="http://www.w3.org/2000/svg" viewBox="0 0 1200 750" role="img" aria-label="Abstract shockwave therapy clinical illustration">
  <defs><linearGradient id="bg" x1="0" y1="0" x2="1" y2="1"><stop offset="0" stop-color="#EAF3FF"/><stop offset="1" stop-color="#FFFFFF"/></linearGradient><linearGradient id="device" x1="0" y1="0" x2="1" y2="1"><stop offset="0" stop-color="#0C2A42"/><stop offset="1" stop-color="#0553CB"/></linearGradient></defs>
  <rect width="1200" height="750" fill="url(#bg)"/>
  <circle cx="940" cy="160" r="240" fill="#0553CB" opacity="0.055"/>
  <path d="M225 520 C365 454 518 445 700 490 C810 517 895 526 988 506" fill="none" stroke="#0C2A42" stroke-width="28" stroke-linecap="round" opacity="0.9"/>
  <rect x="458" y="180" width="280" height="92" rx="46" transform="rotate(24 598 226)" fill="url(#device)"/>
  <rect x="690" y="258" width="155" height="62" rx="31" transform="rotate(24 767 289)" fill="#073B8E" opacity="0.95"/>
  <circle cx="454" cy="190" r="38" fill="#FFFFFF" stroke="#0553CB" stroke-width="12"/>
  <g fill="none" stroke="#0553CB" stroke-linecap="round" opacity="0.6"><path d="M444 300 C394 340 360 390 342 454" stroke-width="9"/><path d="M492 322 C450 369 424 415 412 470" stroke-width="7"/><path d="M535 344 C504 388 486 430 480 480" stroke-width="6"/></g>
  <g fill="none" stroke="#073B8E" stroke-width="5" opacity="0.22"><path d="M150 210 h200"/><path d="M125 255 h270"/><path d="M162 300 h230"/></g>
</svg>
